<?xml version="1.0" standalone="no"?>
<!DOCTYPE svg PUBLIC "-//W3C//DTD SVG 1.1//EN" "http://www.w3.org/Graphics/SVG/1.1/DTD/svg11.dtd" >
<svg xmlns="http://www.w3.org/2000/svg">
<metadata></metadata>
<defs>
<font id="homizionovalightlight" horiz-adv-x="1227" >
<font-face units-per-em="2048" ascent="1638" descent="-410" />
<missing-glyph horiz-adv-x="561" />
<glyph unicode="AE" horiz-adv-x="1587" d="M26 0l697 1434h803v-97h-572v-571h531v-90h-531v-586h604v-90h-702v446h-502l-219 -446h-109zM395 537h461v800h-78z" />
<glyph unicode="ae" horiz-adv-x="1826" d="M255 264q8 81 42.5 143t87 103.5t119 62.5t138.5 21t144.5 -20.5t138.5 -65.5l-1 161q-12 296 -247 296q-183 0 -317 -122l-58 61q139 145 384 145q158 0 223 -74q64 -74 87 -147q125 221 388 221q96 0 169.5 -35t123.5 -99.5t76 -157.5t26 -208v-41h-758 q0 -106 25 -189.5t72.5 -141t115 -88t152.5 -30.5q174 0 307 109l42 -69q-172 -124 -368 -124q-272 0 -385 227q-51 -60 -100 -103t-99 -70.5t-102.5 -40.5t-109.5 -13q-73 0 -131.5 22t-99.5 60.5t-63 91.5t-22 115zM352 268q0 -46 15.5 -84.5t45 -66t72 -43t96.5 -15.5 q147 0 239 74q93 76 103 127v168q-69 46 -137 67t-134 21q-63 0 -117.5 -18t-95 -51t-64 -78.5t-23.5 -100.5zM1025 592h658q-3 88 -24.5 157.5t-60.5 117.5t-94 73t-124 25q-72 0 -132 -24.5t-106 -71.5t-76 -117t-41 -160z" />
<glyph unicode="OE" horiz-adv-x="1755" d="M55 702q0 171 48 310.5t138.5 238.5t221 153t294.5 54q141 0 266 -24h670v-91h-571v-575h530v-90h-530v-588h604v-90h-703q-88 -13 -158 -19t-124 -6q-164 0 -291.5 54t-215 150.5t-133.5 230t-46 292.5zM157 713q0 -144 38.5 -263.5t112.5 -204.5t182.5 -132t248.5 -47 q138 0 284 30v1245q-131 27 -272 27q-137 0 -247 -48.5t-187 -135.5t-118.5 -207.5t-41.5 -263.5z" />
<glyph unicode="oe" horiz-adv-x="1844" d="M60 506q0 129 36 229.5t101.5 170.5t157 106.5t201.5 36.5q78 0 145.5 -21t122 -59.5t94.5 -93.5t62 -123q118 297 411 297q95 0 168.5 -34.5t123.5 -99t76 -157t26 -209.5v-41h-758q0 -104 25 -187.5t71.5 -141.5t114 -89t153.5 -31q176 0 336 127l36 -77 q-194 -134 -386 -134q-294 0 -399 297q-116 -297 -433 -297q-113 0 -203 39.5t-152.5 110.5t-96 168t-33.5 213zM156 504q0 -100 27 -182t78 -140.5t123.5 -90.5t163.5 -32q92 0 164 31t121 89.5t74.5 142.5t25.5 190q0 221 -98.5 337t-282.5 116q-90 0 -163 -31.5 t-125 -90.5t-80 -144.5t-28 -194.5zM1031 592h657q-3 88 -24.5 157.5t-60.5 117.5t-94 73t-124 25q-73 0 -133.5 -25t-106.5 -73t-75 -117.5t-39 -157.5z" />
<glyph unicode="&#xfb01;" horiz-adv-x="856" d="M24 940v84h184v178q0 82 22 144t60.5 103t90.5 62t112 21q65 0 145 -39l-37 -74q-38 29 -112 29q-189 0 -189 -254v-170h510v-1024h-92v940h-418v-940h-92v940h-184z" />
<glyph unicode="&#xfb02;" horiz-adv-x="1117" d="M33 940v84h184v178q0 82 22 144t60.5 103t90.5 62t112 21q285 0 317 -204v-1064q0 -106 33.5 -153.5t113.5 -47.5q59 0 123 37v-86q-69 -34 -135 -34q-227 0 -227 272v1076q-29 120 -229 120q-189 0 -189 -254v-170h271v-84h-271v-940h-92v940h-184z" />
<glyph horiz-adv-x="2048" />
<glyph horiz-adv-x="2048" />
<glyph unicode="&#xd;" horiz-adv-x="199" />
<glyph unicode=" "  horiz-adv-x="561" />
<glyph unicode="&#x09;" horiz-adv-x="561" />
<glyph unicode="&#xa0;" horiz-adv-x="561" />
<glyph unicode="!" horiz-adv-x="220" d="M31 63q0 35 23 57.5t57 22.5t58 -22.5t24 -57.5q0 -34 -24 -57.5t-58 -23.5t-57 23.5t-23 57.5zM66 403v1031h96l-10 -1031h-86z" />
<glyph unicode="&#x22;" horiz-adv-x="498" d="M87 985v449h86v-449h-86zM335 985v449h86l-10 -449h-76z" />
<glyph unicode="#" horiz-adv-x="1136" d="M20 522l19 78h280l76 346h-293l19 78h290l88 410h80l-88 -410h269l88 410h80l-89 -410h275l-19 -78h-272l-76 -346h285l-18 -78h-283l-86 -399h-80l86 399h-268l-86 -399h-80l86 399h-283zM399 600h268l76 346h-268z" />
<glyph unicode="$" horiz-adv-x="785" d="M28 80v102q152 -98 327 -98v598q-101 57 -164.5 103.5t-99.5 91t-49.5 91t-13.5 103.5q0 67 23 128t65.5 109t103 80.5t135.5 43.5v182h78v-180q155 0 260 -43v-103q-104 60 -260 60v-607q93 -51 155.5 -95.5t100.5 -89.5t54 -93.5t16 -106.5q0 -70 -22 -129.5 t-64 -105.5t-102.5 -76t-137.5 -41v-213h-78v209q-187 0 -327 80zM124 1083q0 -45 9.5 -82t35.5 -71.5t70.5 -69t115.5 -74.5v560q-53 -8 -96 -30.5t-73 -57t-46 -79t-16 -96.5zM433 86q114 20 172 87.5t58 164.5q0 46 -11 83.5t-37 72t-70.5 68.5t-111.5 73v-549z" />
<glyph unicode="%" horiz-adv-x="1551" d="M52 1092q0 88 25 156.5t70 116t108 72.5t139 25q75 0 135 -25t102.5 -72.5t65.5 -115.5t23 -155q0 -77 -23.5 -143.5t-67.5 -115.5t-106 -77.5t-139 -28.5q-78 0 -139.5 27t-104 75t-65.5 114.5t-23 146.5zM144 1090q0 -64 16.5 -116t47.5 -88.5t76 -56.5t102 -20 t102 20.5t76.5 58.5t48 90.5t16.5 117.5q0 141 -64 212.5t-173 71.5q-57 0 -103 -19.5t-78.5 -57t-49.5 -91t-17 -122.5zM287 -33l863 1465h96l-860 -1465h-99zM836 338q0 88 25.5 157.5t71 116.5t108 72t137.5 25t135 -25.5t102.5 -73t65.5 -116t23 -154.5 q0 -77 -23.5 -143.5t-67.5 -115.5t-106 -77.5t-139 -28.5t-138 26.5t-104.5 74.5t-66.5 115t-23 147zM928 336q0 -64 16.5 -116t47.5 -88.5t76 -56.5t102 -20q58 0 103.5 20.5t76.5 58t47.5 90.5t16.5 118q0 142 -63.5 213.5t-174.5 71.5q-57 0 -103 -20.5t-78 -58 t-49.5 -91.5t-17.5 -121z" />
<glyph unicode="&#x26;" horiz-adv-x="1343" d="M52 360q0 275 332 424q-162 187 -162 342q0 70 26.5 130.5t73.5 105.5t111.5 70.5t141.5 25.5q71 0 128 -21.5t96.5 -60t61 -91.5t21.5 -116q0 -69 -20 -126.5t-62 -107t-107 -93t-155 -84.5q150 -159 440 -434q125 187 133 434h96q-7 -267 -166 -498 q87 -85 154.5 -149.5t118.5 -112.5l-143 2l-193 188q-201 -213 -479 -213q-106 0 -189 29t-140.5 80.5t-87.5 122t-30 153.5zM149 367q0 -68 24.5 -124.5t71 -97t113 -63.5t149.5 -23q228 0 410 191q-168 162 -284 278t-185 191q-299 -131 -299 -352zM319 1124 q0 -128 155 -301q88 39 147.5 76.5t96 77.5t52 84t15.5 96q0 49 -17 89.5t-46.5 68.5t-69.5 43.5t-86 15.5q-56 0 -101.5 -19.5t-78 -53.5t-50 -79.5t-17.5 -97.5z" />
<glyph unicode="'" horiz-adv-x="233" d="M78 985v449h86v-449h-86z" />
<glyph unicode="(" horiz-adv-x="461" d="M31 545q0 540 307 889h98q-313 -358 -313 -887q0 -497 309 -873h-98q-303 354 -303 871z" />
<glyph unicode=")" horiz-adv-x="462" d="M26 1434h98q307 -349 307 -889q0 -519 -303 -871h-98q309 376 309 873q0 529 -313 887z" />
<glyph unicode="*" horiz-adv-x="740" d="M24 1126l26 86l289 -102v324h78v-324l272 102l27 -86l-293 -75l199 -267l-76 -51l-174 277l-178 -277l-74 51l199 267z" />
<glyph unicode="+" horiz-adv-x="917" d="M5 555v84h412v412h84v-412h411v-84h-411v-412h-84v412h-412z" />
<glyph unicode="," horiz-adv-x="283" d="M19 -248l150 475h102l-174 -475h-78z" />
<glyph unicode="-" horiz-adv-x="708" d="M80 555v90h547v-90h-547z" />
<glyph unicode="." horiz-adv-x="278" d="M59 63q0 35 23 57.5t57 22.5t58 -22.5t24 -57.5q0 -34 -24 -57.5t-58 -23.5t-57 23.5t-23 57.5z" />
<glyph unicode="/" horiz-adv-x="797" d="M4 -238l693 1672h96l-697 -1672h-92z" />
<glyph unicode="0" horiz-adv-x="986" d="M59 686q0 383 117.5 577.5t335.5 194.5q414 0 414 -735q0 -183 -30 -322.5t-87 -234t-140 -143t-188 -48.5q-99 0 -177.5 46t-132.5 136t-83 223t-29 306zM155 698q0 -152 22 -271t65 -201t106 -124.5t145 -42.5q80 0 142.5 43.5t105.5 126.5t65.5 204t22.5 276 q0 665 -325 665q-165 0 -257 -169t-92 -507z" />
<glyph unicode="1" horiz-adv-x="524" d="M0 1239v92l443 154v-1485h-92v1364z" />
<glyph unicode="2" horiz-adv-x="913" d="M53 0v98l391 416q209 222 274 329q66 106 66 236q0 142 -77 218.5t-222 76.5q-188 0 -358 -149v108q164 125 370 125q92 0 163.5 -26t120 -74t74 -115t25.5 -149q0 -147 -71 -268q-36 -60 -110.5 -151t-192.5 -216l-351 -371v-4h717v-84h-819z" />
<glyph unicode="3" horiz-adv-x="855" d="M28 51v105q163 -97 309 -97q87 0 155.5 23.5t116 65.5t72.5 101t25 130q0 159 -112.5 241t-320.5 82h-110v84h98q194 0 293.5 80.5t99.5 231.5q0 130 -72.5 203t-213.5 73q-135 0 -283 -94v98q165 80 297 80q85 0 153 -24t116 -68.5t74 -106.5t26 -137q0 -291 -279 -370 v-4q73 -8 134 -37t104.5 -75t67.5 -108t24 -135q0 -94 -34.5 -171t-96.5 -132t-147.5 -85t-188.5 -30q-162 0 -307 76z" />
<glyph unicode="4" horiz-adv-x="982" d="M4 406v77l661 951h92v-945h191v-83h-191v-406h-92v406h-661zM112 489h553v680q0 42 1 73.5t3 55.5h-4q-14 -25 -26.5 -46.5t-24.5 -39.5z" />
<glyph unicode="5" horiz-adv-x="823" d="M51 29v106q136 -76 274 -76q88 0 158 25.5t118 72t73.5 112t25.5 145.5q0 350 -399 350q-164 0 -211 -35v705h645v-84h-553v-510q54 4 92 6t61 2q114 0 200 -28.5t144 -83t87.5 -133t29.5 -177.5q0 -100 -31.5 -183t-92.5 -142.5t-150.5 -92.5t-204.5 -33q-155 0 -266 54 z" />
<glyph unicode="6" horiz-adv-x="945" d="M55 629q0 188 37 341t108.5 261.5t175 167.5t236.5 59q116 0 209 -35v-98q-101 49 -211 49q-107 0 -192 -53t-145 -149t-92 -229.5t-32 -293.5h4q105 248 359 248q88 0 160 -34t123.5 -94t79.5 -140.5t28 -173.5q0 -104 -31.5 -192t-88.5 -152t-135.5 -100t-172.5 -36 q-99 0 -177 42.5t-132 125t-82.5 205t-28.5 281.5zM161 469q0 -82 23 -156.5t65 -130.5t101.5 -89.5t132.5 -33.5q69 0 128.5 28.5t102.5 79t67.5 119.5t24.5 150q0 84 -21.5 153.5t-62.5 119t-99.5 77t-131.5 27.5q-71 0 -131.5 -29.5t-104.5 -78t-69 -110.5t-25 -126z" />
<glyph unicode="7" horiz-adv-x="888" d="M9 1350v84h864v-25l-575 -1409h-100l557 1350h-746z" />
<glyph unicode="8" horiz-adv-x="951" d="M55 338q0 270 321 407v5q-272 131 -272 360q0 74 29 138t81 110.5t123.5 73t157.5 26.5q79 0 144 -24.5t111.5 -67.5t72.5 -103t26 -130q0 -244 -289 -379v-4q336 -122 336 -398q0 -83 -30 -152t-87 -119t-141 -78t-192 -28q-87 0 -159 26.5t-123.5 74.5t-80 115 t-28.5 147zM151 342q0 -62 23 -113.5t65.5 -89.5t102.5 -59t134 -21q76 0 136.5 21.5t102 59.5t63.5 89.5t22 110.5q0 66 -20.5 120t-62 97.5t-105 78.5t-148.5 64q-84 -34 -143 -70.5t-97 -79t-55.5 -94t-17.5 -114.5zM200 1124q0 -214 272 -327q281 111 281 325 q0 59 -20 106t-56 79.5t-86 49.5t-110 17q-58 0 -109 -19t-89.5 -52.5t-60.5 -79t-22 -99.5z" />
<glyph unicode="9" horiz-adv-x="946" d="M42 985q0 106 32.5 193t90.5 149t137.5 96.5t172.5 34.5q95 0 172 -40.5t131 -122t83 -203t29 -283.5q0 -200 -36.5 -355t-107.5 -261.5t-176 -162t-243 -55.5q-108 0 -209 37v101q115 -54 211 -54q227 0 346 181.5t119 535.5h-4q-99 -231 -352 -231q-89 0 -161.5 33 t-125 91.5t-81 139t-28.5 176.5zM139 1004q0 -87 23.5 -156.5t65.5 -118t101 -74.5t131 -26q66 0 125 26.5t102.5 71t69 104t25.5 125.5q0 91 -23.5 168t-66 132.5t-101.5 86.5t-129 31q-71 0 -130 -28t-102 -77.5t-67 -117.5t-24 -147z" />
<glyph unicode=":" horiz-adv-x="253" d="M47 63q0 35 23 57.5t57 22.5t58 -22.5t24 -57.5q0 -34 -24 -57.5t-58 -23.5t-57 23.5t-23 57.5zM47 963q0 34 23 56.5t57 22.5t58 -22.5t24 -56.5t-24 -58t-58 -24t-57 24t-23 58z" />
<glyph unicode=";" horiz-adv-x="294" d="M12 -248l150 475h102l-174 -475h-78zM121 963q0 34 22.5 56.5t57.5 22.5q34 0 57.5 -22.5t23.5 -56.5t-23.5 -58t-57.5 -24q-35 0 -57.5 24t-22.5 58z" />
<glyph unicode="&#x3c;" horiz-adv-x="910" d="M1 580v18l833 467v-94l-677 -379v-4l677 -334v-96z" />
<glyph unicode="=" horiz-adv-x="1001" d="M80 362v84h907v-84h-907zM80 750v84h907v-84h-907z" />
<glyph unicode="&#x3e;" horiz-adv-x="909" d="M75 158v96l678 334v4l-678 379v94l833 -467v-18z" />
<glyph unicode="?" horiz-adv-x="754" d="M10 1287q105 165 378 171q74 0 137.5 -21t110 -61.5t73 -99t26.5 -133.5q0 -57 -16 -104t-41.5 -87t-58.5 -75t-67 -68q-53 -51 -87 -85t-53 -62t-26 -54.5t-7 -62.5q0 -46 8 -83.5t16 -63.5h-81q-10 25 -17.5 65.5t-7.5 80.5q0 47 12.5 85.5t35 72.5t54 66t69.5 65 q32 28 63 59.5t55 68t38.5 79t14.5 93.5q0 55 -18.5 98.5t-51.5 74t-79.5 46.5t-102.5 16q-94 0 -173.5 -32.5t-125.5 -92.5zM278 63q0 35 22.5 57.5t56.5 22.5q35 0 58.5 -22.5t23.5 -57.5q0 -34 -23.5 -57.5t-58.5 -23.5q-34 0 -56.5 23.5t-22.5 57.5z" />
<glyph unicode="@" horiz-adv-x="1701" d="M56 616q0 359 235 600q236 242 590 242q175 0 317.5 -55t244 -152.5t157 -231t55.5 -290.5q0 -117 -28.5 -216t-79 -171.5t-119.5 -113t-149 -40.5q-222 0 -238 238h-4q-90 -238 -293 -238q-70 0 -126 26t-95.5 74.5t-60.5 116.5t-21 152q0 111 29.5 208t84 168.5 t131 112.5t169.5 41q39 0 74 -11t63 -29.5t48 -42.5t30 -50h4q2 31 4.5 60.5t5.5 58.5h88l-51 -584q0 -217 153 -217q62 0 114.5 33.5t90.5 93t59 141.5t21 179q0 148 -46.5 269t-135 207t-216 132.5t-290.5 46.5q-319 0 -519 -218t-200 -540q0 -163 49.5 -296t141.5 -227 t224 -145.5t296 -51.5q251 0 426 88l48 -60q-242 -112 -484 -112q-180 0 -327 59t-251.5 165t-161.5 254t-57 326zM537 565q0 -68 15 -122t42.5 -92t68 -58.5t91.5 -20.5q69 0 124 37.5t93.5 103.5t59 156.5t20.5 196.5q0 118 -53 178t-147 60q-72 0 -130 -31.5t-99 -89.5 t-63 -138.5t-22 -179.5z" />
<glyph unicode="A" d="M28 0l541 1434h94l535 -1434h-111l-164 446h-622l-164 -446h-109zM336 537h553l-242 663q-11 28 -18 55t-15 54h-4q-16 -65 -33 -107z" />
<glyph unicode="B" horiz-adv-x="947" d="M80 0v1434h377q84 0 152 -24t116.5 -67.5t74.5 -104.5t26 -136q0 -126 -66 -217t-186 -129v-4q73 -7 132.5 -34.5t101.5 -72t64.5 -104t22.5 -131.5q0 -90 -30.5 -165.5t-86.5 -129.5t-135.5 -84.5t-177.5 -30.5h-385zM179 90h266q171 0 259.5 80t88.5 231 q0 297 -403 297h-211v-608zM179 788h200q77 0 140.5 20.5t108.5 59t70 93.5t25 124q0 258 -305 258h-239v-555z" />
<glyph unicode="C" horiz-adv-x="1193" d="M53 702q0 171 48 310.5t138 238.5t218 153t288 54q115 0 212.5 -33t177.5 -94l-51 -81q-70 58 -159.5 88t-196.5 30q-125 0 -230 -47.5t-181 -134t-119 -207t-43 -266.5q0 -147 39.5 -266.5t113 -204t177 -130.5t231.5 -46q104 0 191.5 27t157.5 80l49 -79 q-81 -59 -180 -89t-216 -30q-152 0 -275 53.5t-209.5 149.5t-133.5 229.5t-47 294.5z" />
<glyph unicode="D" horiz-adv-x="1220" d="M80 0v1434h359q178 0 314.5 -45t228.5 -133t139 -218t47 -301q0 -162 -51 -297.5t-148 -233t-236 -152t-315 -54.5h-338zM179 90h225q160 0 283 42t207 124t127.5 201.5t43.5 275.5q0 610 -641 610h-245v-1253z" />
<glyph unicode="E" horiz-adv-x="785" d="M79 0v1434h670v-91h-571v-575h530v-90h-530v-588h604v-90h-703z" />
<glyph unicode="F" horiz-adv-x="748" d="M78 0v1434h670v-91h-571v-585h530v-90h-530v-668h-99z" />
<glyph unicode="G" horiz-adv-x="1223" d="M53 702q0 171 48 310.5t138 238.5t218 153t288 54q115 0 212.5 -33t177.5 -94l-51 -81q-105 73 -214 100q-72 18 -141 18q-36 0 -71 -5q-104 -14 -195.5 -66t-159.5 -136t-108 -197.5t-40 -250.5q0 -147 39.5 -266.5t113 -204t177 -130.5t231.5 -46q207 0 348 106v451 h-338v90h437v-575h1q-60 -47 -115.5 -78.5t-109.5 -50.5t-108.5 -26.5t-112.5 -7.5q-152 0 -275 53.5t-209.5 149.5t-133.5 229.5t-47 294.5z" />
<glyph unicode="H" horiz-adv-x="1175" d="M78 0v1434h99v-656h821v656h98v-1434h-98v688h-821v-688h-99z" />
<glyph unicode="I" horiz-adv-x="259" d="M77 0v1434h99v-1434h-99z" />
<glyph unicode="J" horiz-adv-x="549" d="M0 -216l37 89q34 -14 84 -14q138 0 199 104.5t61 325.5v1145h98v-1147q0 -519 -360 -519q-59 0 -119 16z" />
<glyph unicode="K" horiz-adv-x="997" d="M76 0v1434h99v-676h4q5 11 11.5 19t14.5 16l580 641h129l-629 -695l668 -739h-139l-611 686q-17 19 -24 33h-4v-719h-99z" />
<glyph unicode="L" horiz-adv-x="750" d="M76 0v1434h99v-1344h575v-90h-674z" />
<glyph unicode="M" horiz-adv-x="1490" d="M76 0v1434h92l535 -1155q10 -21 21 -52.5t24 -66.5h6l11 32q1 2 9 25.5t25 69.5l527 1147h88v-1434h-95v1213l-555 -1213h-32l-564 1233v-1233h-92z" />
<glyph unicode="N" horiz-adv-x="1235" d="M75 0v1434h76l848 -1149q14 -19 29 -42t32 -50h5q-2 35 -3.5 65t-1.5 55v1121h99v-1434h-70l-854 1159q-14 17 -24.5 35t-21.5 35l-13 20h-4q1 -13 1.5 -28.5t0.5 -34.5v-1186h-99z" />
<glyph unicode="O" horiz-adv-x="1447" d="M53 702q0 171 48 310.5t138 238.5t218 153t288 54q144 0 263.5 -52.5t205 -147t133 -227t47.5 -292.5q0 -177 -48 -318.5t-136.5 -240.5t-213.5 -152t-278 -53q-152 0 -275 53.5t-209.5 149.5t-133.5 229.5t-47 294.5zM155 713q0 -147 39.5 -266.5t113 -204t177 -130.5 t231.5 -46q133 0 239.5 44.5t181.5 129.5t115 206.5t40 276.5q0 151 -39.5 271t-113 203t-178 127t-233.5 44q-125 0 -230 -47.5t-181 -134t-119 -207t-43 -266.5z" />
<glyph unicode="P" horiz-adv-x="884" d="M74 0v1434h346q224 0 339.5 -101.5t115.5 -300.5q0 -99 -33 -182.5t-96.5 -144.5t-156 -95.5t-210.5 -34.5h-206v-575h-99zM173 666h204q196 0 296 91.5t100 262.5q0 323 -371 323h-229v-677z" />
<glyph unicode="Q" horiz-adv-x="1423" d="M53 702q0 171 48 310.5t138 238.5t218 153t288 54q144 0 263.5 -52.5t205 -147t133 -227t47.5 -292.5q0 -223 -74.5 -387t-208.5 -260l188 -145l-54 -58l-206 159q-140 -73 -321 -73q-152 0 -275 53.5t-209.5 149.5t-133.5 229.5t-47 294.5zM155 713q0 -147 39.5 -266.5 t113 -204t177 -130.5t231.5 -46q135 0 242 45l-108 84l54 58l130 -102q124 79 191 224t67 348q0 151 -39.5 271t-113 203t-178 127t-233.5 44q-125 0 -230 -47.5t-181 -134t-119 -207t-43 -266.5z" />
<glyph unicode="R" horiz-adv-x="968" d="M73 0v1434h398q94 0 169.5 -27t128.5 -76t81 -118t28 -152q0 -77 -23 -142.5t-66.5 -116t-106.5 -85t-142 -49.5v-4l379 -664h-112l-361 639h-274v-639h-99zM172 729h247q81 0 147 22t112.5 64t72 101.5t25.5 134.5q0 139 -86 215.5t-250 76.5h-268v-614z" />
<glyph unicode="S" horiz-adv-x="851" d="M37 92l61 74q124 -99 270 -99q169 0 254.5 68.5t85.5 194.5q0 56 -12 97t-46 79t-95 79.5t-159 98.5q-217 126 -276 212q-58 85 -58 198q0 75 31 141.5t87.5 116t136.5 78t178 28.5q182 -9 315 -115l-61 -74q-125 99 -267 99q-73 0 -131.5 -19.5t-100 -54.5t-63.5 -83 t-22 -105t11.5 -97t45 -77.5t94.5 -78.5t160 -99q102 -58 167 -107.5t102 -96.5t51 -96t14 -106q0 -82 -28.5 -150t-85.5 -117t-143 -76.5t-201 -27.5q-182 9 -315 115z" />
<glyph unicode="T" horiz-adv-x="946" d="M10 1343v91h926v-91h-414v-1343h-98v1343h-414z" />
<glyph unicode="U" horiz-adv-x="1125" d="M65 551v883h98v-869q0 -499 406 -499q393 0 393 485v883h98v-861q0 -598 -510 -598q-485 0 -485 576z" />
<glyph unicode="V" horiz-adv-x="1205" d="M26 1434h111l415 -1155q13 -36 22.5 -70t14.5 -66h4q10 52 41 138l441 1153h106l-557 -1434h-74z" />
<glyph unicode="W" horiz-adv-x="1820" d="M44 1434h111l327 -1149q11 -39 18.5 -70.5t12.5 -56.5h4q2 19 11.5 50.5t23.5 76.5l354 1149h50l325 -1149q11 -40 19 -72t12 -55h4q2 14 6.5 30t9.5 34l336 1212h107l-420 -1434h-82l-319 1079q-24 82 -27 135h-4q-2 -22 -9.5 -55t-21.5 -78l-340 -1081h-82z" />
<glyph unicode="X" horiz-adv-x="1126" d="M52 0l453 723l-426 711h119l321 -539q13 -21 25.5 -45t26.5 -51h4l53 96l319 539h115l-430 -709l440 -725h-120l-330 547q-31 52 -53 100h-5q-25 -52 -57 -100l-336 -547h-119z" />
<glyph unicode="Y" horiz-adv-x="1042" d="M22 1434h111l334 -691q9 -19 20.5 -45.5t24.5 -60.5h4q7 19 19.5 44.5t29.5 59.5l350 693h107l-463 -889v-545h-98v543z" />
<glyph unicode="Z" horiz-adv-x="1064" d="M21 0v31l868 1312h-799v91h952v-27l-872 -1317h858v-90h-1007z" />
<glyph unicode="[" horiz-adv-x="390" d="M71 -326v1760h317v-84h-225v-1592h225v-84h-317z" />
<glyph unicode="\" horiz-adv-x="797" d="M4 1434h97l692 -1672h-92z" />
<glyph unicode="]" horiz-adv-x="393" d="M2 -242h225v1592h-225v84h318v-1760h-318v84z" />
<glyph unicode="^" horiz-adv-x="861" d="M25 702l385 756h41l385 -756h-96l-307 613h-4l-308 -613h-96z" />
<glyph unicode="_" horiz-adv-x="993" d="M71 -178h850v-90h-850v90z" />
<glyph unicode="`" horiz-adv-x="359" d="M9 1516h104l234 -328h-90z" />
<glyph unicode="a" horiz-adv-x="875" d="M47 264q2 88 36.5 148.5t90.5 99t126.5 57.5t144.5 25q35 3 70 2q38 0 75 -3q71 -6 127 -17l-1 93q-12 296 -247 296q-183 0 -317 -122l-58 61q139 145 384 145q160 0 245.5 -97t85.5 -286v-666h-92v161q-14 -35 -50 -68t-84.5 -59.5t-105.5 -42.5t-114 -16 q-73 0 -131.5 22t-99.5 60.5t-63 91.5t-22 115zM144 268q0 -46 15.5 -84.5t45 -66t72 -43t96.5 -15.5q147 0 239 74q93 76 103 127v239q-45 9 -105 15q-39 4 -79 3q-23 0 -45 -1q-64 -3 -125 -16t-109.5 -41.5t-78 -75t-29.5 -115.5z" />
<glyph unicode="b" horiz-adv-x="979" d="M49 0v1516h92v-703q8 17 31.5 55t65 77t102.5 69t145 33h13q90 1 169 -37q85 -40 147 -113t98 -173t36 -215q0 -127 -34 -226.5t-95.5 -167.5t-146.5 -104t-187 -36q-231 0 -340 207h-4v-182h-92zM141 267q32 -42 66.5 -79.5t76.5 -66t93 -45.5t116 -17q79 0 145 29.5 t113.5 86.5t74 140.5t26.5 191.5q0 96 -31 179t-83.5 144.5t-121 97t-143.5 35.5q-57 -4 -101.5 -19.5t-83 -42.5t-73.5 -66t-74 -90v-478z" />
<glyph unicode="c" horiz-adv-x="882" d="M51 506q0 127 35.5 228t101 171t157 107t202.5 37q83 0 152.5 -21t126.5 -62l-50 -71q-93 70 -233 70q-90 0 -163 -31.5t-125 -90.5t-80 -144.5t-28 -194.5q0 -100 27 -182t78 -140.5t123.5 -90.5t163.5 -32q74 0 133.5 19.5t106.5 57.5l44 -73q-58 -42 -130 -65 t-157 -23q-113 0 -203 39t-152.5 109.5t-96 168t-33.5 214.5z" />
<glyph unicode="d" horiz-adv-x="979" d="M9 509q0 115 36 215t98 172q63 74 147 114q79 38 169 37h13q84 -3 145 -33t102.5 -69t65 -77t31.5 -55v703h92v-1516h-92v182h-4q-110 -207 -340 -207q-102 0 -187 36t-146.5 104t-95.5 167.5t-34 226.5zM105 507q0 -108 26.5 -191.5t74 -140.5t113.5 -86.5t145 -29.5 q64 0 115.5 17t93.5 45.5t76.5 66t66.5 79.5v478q-39 51 -74 90t-73.5 66t-83 42.5t-101.5 19.5q-75 0 -143.5 -35.5t-121 -97t-83.5 -144.5t-31 -179z" />
<glyph unicode="e" horiz-adv-x="951" d="M50 518q0 111 33.5 207.5t94 168.5t145 113.5t186.5 41.5q96 0 169.5 -35t123.5 -99.5t76 -157.5t26 -208v-41h-758q0 -106 25 -189.5t72.5 -141t115 -88t152.5 -30.5q174 0 307 109l42 -69q-172 -124 -368 -124q-99 0 -180 36.5t-139.5 106t-90.5 170.5t-32 230z M150 592h658q-3 88 -24.5 157.5t-60.5 117.5t-94 73t-124 25q-72 0 -132 -24.5t-106 -71.5t-76 -117t-41 -160z" />
<glyph unicode="f" horiz-adv-x="635" d="M15 940v84h184v178q0 82 22 144t60.5 103t90.5 62t112 21q65 0 145 -39l-37 -74q-38 29 -112 29q-189 0 -189 -254v-170h271v-84h-271v-940h-92v940h-184z" />
<glyph unicode="g" horiz-adv-x="996" d="M38 494q0 121 33.5 223t95 175.5t148 115t192.5 41.5q226 0 332 -187v162h92v-948q0 -145 -31 -250t-95 -173.5t-161.5 -101t-230.5 -32.5q-148 0 -305 78l61 73q100 -67 246 -67q424 0 424 448v133q-125 -209 -373 -209q-94 0 -172.5 35t-135.5 101.5t-88.5 163 t-31.5 219.5zM134 502q0 -105 24.5 -187t69.5 -139t108.5 -87t141.5 -30q232 0 361 218v489q-145 199 -330 199q-85 0 -154 -33.5t-118 -94.5t-76 -146.5t-27 -188.5z" />
<glyph unicode="h" horiz-adv-x="880" d="M71 0v1516h92v-676q125 209 356 209q168 0 254 -106t86 -308v-635h-92v614q0 184 -66.5 267.5t-207.5 83.5q-190 0 -330 -245v-720h-92z" />
<glyph unicode="i" horiz-adv-x="204" d="M24 1360q0 33 23.5 53.5t52.5 20.5q31 0 54.5 -20t23.5 -54q0 -32 -23 -55t-55 -23q-30 0 -53 22t-23 56zM55 0v1024h92v-1024h-92z" />
<glyph unicode="j" horiz-adv-x="580" d="M-30 -429l30 79q80 -47 156 -47q260 0 260 409v1012h92v-995q0 -510 -362 -510q-27 0 -54 5.5t-51 13.5t-42.5 17t-28.5 16zM385 1360q0 33 23.5 53.5t52.5 20.5q31 0 54.5 -20t23.5 -54q0 -32 -23 -55t-55 -23q-30 0 -53 22t-23 56z" />
<glyph unicode="k" horiz-adv-x="792" d="M71 0v1516h92v-977h4l465 485h119l-486 -496l525 -528h-133l-490 506h-4v-506h-92z" />
<glyph unicode="l" horiz-adv-x="241" d="M69 0v1516h92v-1516h-92z" />
<glyph unicode="m" horiz-adv-x="1515" d="M71 0v1024h92v-170q66 100 144.5 147.5t172.5 47.5q39 0 79 -11.5t77.5 -35t70.5 -59t56 -83.5q66 97 143 143t170 46q55 0 113 -23.5t105 -71.5t77.5 -122t30.5 -174v-658h-92v623q0 342 -260 342q-164 -15 -264 -163q9 -32 14.5 -67.5t5.5 -76.5v-658h-92v623 q0 342 -260 342q-188 -16 -291 -208v-757h-92z" />
<glyph unicode="n" horiz-adv-x="924" d="M71 0v1024h92v-170q66 100 144.5 147.5t172.5 47.5q55 0 113 -23.5t105 -71.5t77.5 -122t30.5 -174v-658h-92v623q0 342 -260 342q-188 -16 -291 -208v-757h-92z" />
<glyph unicode="o" horiz-adv-x="1072" d="M51 506q0 127 35.5 228t101 171t157 107t202.5 37q109 0 196.5 -37t149 -106.5t94.5 -169.5t33 -226q0 -118 -33.5 -216t-96 -169t-152.5 -110.5t-202 -39.5q-113 0 -203 39t-152.5 109.5t-96 168t-33.5 214.5zM147 504q0 -100 27 -182t78 -140.5t123.5 -90.5t163.5 -32 q92 0 164 31t121 89.5t74.5 142.5t25.5 190q0 221 -98.5 337t-282.5 116q-90 0 -163 -31.5t-125 -90.5t-80 -144.5t-28 -194.5z" />
<glyph unicode="p" horiz-adv-x="979" d="M49 -473v1498h92v-182h4q109 207 340 207q102 0 187 -36t146.5 -104t95.5 -167.5t34 -226.5q0 -116 -36 -215.5t-98 -172t-147 -112.5q-79 -38 -169 -38h-13q-84 3 -145 33t-102.5 69t-65 77t-31.5 55v-685h-92zM141 280q39 -51 74 -90t73.5 -66t83 -42.5t101.5 -19.5 q75 0 143.5 35.5t121 97t83.5 144.5t31 179q0 108 -26.5 191.5t-74 140.5t-113.5 86.5t-145 29.5q-65 0 -116 -17t-93 -45.5t-76.5 -66t-66.5 -79.5v-478z" />
<glyph unicode="q" horiz-adv-x="980" d="M49 516q0 127 34 226.5t95.5 167.5t146.5 104t187 36q230 0 340 -207h4v182h92v-1498h-92v685q-8 -17 -31.5 -55t-65 -77t-102.5 -69t-145 -33h-13q-91 0 -169 38q-85 40 -147 112.5t-98 172t-36 215.5zM145 518q0 -96 31 -179t83.5 -144.5t121 -97t143.5 -35.5 q57 4 101.5 19.5t83 42.5t73.5 66t74 90v478q-32 42 -66.5 79.5t-76.5 66t-93.5 45.5t-115.5 17q-79 0 -145 -29.5t-113.5 -86.5t-74 -140.5t-26.5 -191.5z" />
<glyph unicode="r" horiz-adv-x="555" d="M71 0v1024h90v-161q63 94 133.5 137.5t157.5 43.5q14 0 32 -3t36.5 -7t35 -9.5t27.5 -9.5l-29 -87q-26 18 -54 25.5t-62 7.5q-176 0 -277 -203v-758h-90z" />
<glyph unicode="s" horiz-adv-x="738" d="M48 75l40 81q25 -22 58 -40t68 -30.5t68.5 -19.5t59.5 -7q241 0 241 197q0 34 -13 62t-40 53.5t-69.5 49.5t-102.5 50q-75 32 -125.5 64t-82 68t-45 77t-13.5 90q0 63 26 114.5t71 88t105 56.5t129 20q130 0 261 -77l-35 -81q-116 74 -236 74q-50 0 -91.5 -14t-71 -39 t-46 -59.5t-16.5 -76.5q0 -37 7.5 -65t30 -53t64 -50t109.5 -55q81 -36 135 -68t86 -66t45.5 -73t13.5 -90q0 -61 -23.5 -112.5t-68 -89t-108.5 -58.5t-144 -21q-148 0 -287 100z" />
<glyph unicode="t" horiz-adv-x="570" d="M12 940v84h184v297h92v-297h270v-84h-270v-676q0 -106 33.5 -153.5t113.5 -47.5q57 0 96 24l27 -73q-69 -34 -135 -34q-227 0 -227 272v688h-184z" />
<glyph unicode="u" horiz-adv-x="923" d="M63 432v592h93v-569q0 -105 17 -180t52 -123t89 -70.5t128 -22.5q191 0 318 220v745h92v-1024h-92v186q-140 -212 -317 -212q-190 0 -285 110t-95 348z" />
<glyph unicode="v" horiz-adv-x="938" d="M26 1024h103l305 -815q11 -29 18.5 -56t12.5 -51h4q5 32 13 57.5t16 45.5l315 819h100l-407 -1024h-84z" />
<glyph unicode="w" horiz-adv-x="1402" d="M45 1024h102l238 -817q5 -17 8.5 -38.5t5.5 -47.5h8q1 14 6 35.5t13 50.5l260 817h63l232 -817q5 -16 7.5 -37t6.5 -49h8q0 14 4 35.5t13 50.5l243 817h95l-318 -1024h-86l-223 772q-5 16 -9 37.5t-7 48.5h-5q-2 -10 -5.5 -31t-14.5 -53l-250 -774h-86z" />
<glyph unicode="x" horiz-adv-x="904" d="M55 0l342 500l-336 524h108l228 -367q22 -35 35 -57t18 -31h4l51 84l238 371h108l-348 -522l334 -502h-117l-270 432h-4l-36 -57q-4 -6 -8 -12.5t-9 -14.5l-226 -348h-112z" />
<glyph unicode="y" horiz-adv-x="950" d="M47 1024h103l309 -834l25 -78l26 72l330 840h100l-499 -1233q-28 -69 -58 -120t-66 -85t-78.5 -50.5t-96.5 -16.5q-43 0 -80 14l28 84q7 -6 56 -6q123 0 194 170l95 227z" />
<glyph unicode="z" horiz-adv-x="895" d="M29 0v35l680 905h-631v84h787v-25l-686 -915h661v-84h-811z" />
<glyph unicode="{" horiz-adv-x="449" d="M8 522v64q156 22 156 243v314q0 152 64.5 219t191.5 72v-84q-44 -2 -74.5 -15t-49.5 -41t-27.5 -72t-8.5 -108v-293q0 -223 -145 -266v-4q145 -46 145 -281v-276q0 -64 8.5 -108.5t27.5 -72t49.5 -40.5t74.5 -15v-84q-127 5 -191.5 72t-64.5 219v297q0 237 -156 260z" />
<glyph unicode="|" horiz-adv-x="243" d="M71 -481v2048h95v-2048h-95z" />
<glyph unicode="}" horiz-adv-x="448" d="M29 -242q41 2 71 13.5t49.5 38.5t29 71.5t9.5 112.5v276q0 234 146 281v4q-146 45 -146 266v293q0 67 -9.5 112t-29 72t-49.5 38.5t-71 13.5v84q63 -3 111 -20t80.5 -51.5t48.5 -88.5t16 -131v-314q0 -220 155 -243v-64q-155 -23 -155 -260v-297q0 -77 -16 -131 t-48.5 -88.5t-80.5 -51.5t-111 -20v84z" />
<glyph unicode="~" horiz-adv-x="956" d="M57 479q6 115 68 178.5t165 63.5q94 0 195 -80q36 -29 60 -46.5t44 -27.5t38 -13t42 -3q133 0 152 160h77q-7 -115 -68.5 -178.5t-164.5 -63.5q-95 0 -201 84q-107 84 -176 84q-141 0 -153 -158h-78z" />
<glyph unicode="&#xa1;" horiz-adv-x="214" d="M23 961q0 34 24 57.5t58 23.5t57 -23.5t23 -57.5q0 -35 -23 -57.5t-57 -22.5t-58 22.5t-24 57.5zM54 -408v1031h96v-1031h-96z" />
<glyph unicode="&#xa2;" horiz-adv-x="814" d="M24 657q0 107 30 200t85.5 165t133.5 119.5t175 64.5v199h92v-193q116 0 252 -62l-27 -89q-105 63 -225 67v-903q130 10 221 80l26 -86q-117 -66 -247 -78v-198h-92v198q-97 8 -175.5 49t-133.5 109t-85 159t-30 199zM120 664q0 -90 22 -166t64 -133t103 -93.5t139 -46.5 v897q-77 -14 -137.5 -54t-103 -100t-65 -137.5t-22.5 -166.5z" />
<glyph unicode="&#xa3;" horiz-adv-x="905" d="M26 0v40q62 26 108.5 69t77.5 97t46.5 117t15.5 128v211h-228v90h228v290q0 93 26 170t73 131.5t114 84.5t149 30q24 0 51.5 -3t55 -8.5t54 -12.5t48.5 -16l-27 -89q-90 45 -186 45q-127 0 -196.5 -87t-69.5 -257v-278h307v-90h-307v-177q0 -83 -17.5 -148.5t-49 -119.5 t-75.5 -98t-97 -84l70 49h697v-84h-868z" />
<glyph unicode="&#xa4;" horiz-adv-x="997" d="M62 354l137 131q-84 115 -84 240q0 139 84 240l-137 133l60 61l135 -135q112 84 241 84q136 0 240 -84l137 135l60 -61l-138 -133q84 -101 84 -240q0 -132 -84 -240l138 -131l-60 -61l-135 135q-107 -86 -242 -86q-140 0 -241 86l-135 -135zM199 727q0 -60 24.5 -115 t65.5 -96t95.5 -65.5t113.5 -24.5q60 0 114.5 24t95.5 65.5t65 96t24 115.5q0 63 -25 117t-66 94t-95 63t-111 23q-63 0 -118 -24t-95.5 -64.5t-64 -94.5t-23.5 -114z" />
<glyph unicode="&#xa5;" horiz-adv-x="960" d="M25 1434h102l307 -572q18 -34 30 -58t17 -38h5q10 33 21 58t22 42l311 568h96l-383 -689h344v-83h-373v-246h373v-84h-373v-332h-92v332h-372v84h372v246h-372v83h342z" />
<glyph unicode="&#xa6;" horiz-adv-x="221" d="M71 371h95v-852h-95v852zM71 715v852h95v-852h-95z" />
<glyph unicode="&#xa7;" horiz-adv-x="676" d="M23 -3l26 85q118 -64 219 -64q109 0 165 50.5t56 132.5q0 26 -6 51t-24 49.5t-52 50t-89 52.5q-90 43 -145 82t-84.5 78.5t-39.5 81.5t-10 91q0 172 162 256q-123 82 -123 219q0 62 21 113.5t61 88t97.5 57t129.5 20.5q28 0 58 -3.5t59.5 -10t56.5 -15t48 -17.5l-27 -87 q-85 49 -197 49q-211 0 -211 -188q0 -41 12 -72t42 -59.5t82 -57.5t132 -65q102 -47 152.5 -117t50.5 -162q0 -162 -154 -283q95 -71 95 -200q0 -57 -23.5 -106t-65.5 -85t-101 -57t-130 -21q-27 0 -57.5 5t-62.5 14t-63.5 20.5t-59.5 23.5zM135 743q0 -49 12.5 -86 t44.5 -69.5t86.5 -63t139.5 -67.5q34 25 59 49t41 50.5t23.5 57.5t7.5 72q0 39 -9 69.5t-37.5 60t-82 60.5t-141.5 70q-144 -65 -144 -203z" />
<glyph unicode="&#xa8;" horiz-adv-x="608" d="M65 1260q0 31 22 50t48 19q29 0 52 -19.5t23 -49.5q0 -31 -21 -51.5t-52 -20.5q-28 0 -50 19.5t-22 52.5zM399 1260q0 31 21.5 50t47.5 19q29 0 52.5 -19.5t23.5 -49.5q0 -31 -21.5 -51.5t-52.5 -20.5q-27 0 -49 19.5t-22 52.5z" />
<glyph unicode="&#xa9;" horiz-adv-x="1591" d="M49 715q0 310 219 526q220 217 526 217q308 0 528 -217t220 -524q0 -308 -219 -525q-217 -217 -527 -217q-312 0 -529 216q-218 216 -218 524zM129 715q0 -273 195 -469q193 -195 470 -195t472 196q196 196 196 468q0 274 -197 471q-196 196 -471 196q-273 0 -469 -196 t-196 -471zM329 690q0 123 39 222t108 168.5t162.5 107t202.5 37.5q130 0 265 -67l-35 -73q-106 58 -246 58q-84 0 -157.5 -30.5t-128 -87t-86.5 -136t-32 -178.5q0 -96 33 -175t89.5 -135t131.5 -87t160 -31q131 0 240 67l35 -67q-158 -84 -285 -84q-104 0 -194 37.5 t-157.5 103.5t-106 156t-38.5 194z" />
<glyph unicode="&#xaa;" horiz-adv-x="685" d="M48 903q0 81 44 135.5t113.5 84.5t155 36.5t168.5 -8.5q0 223 -166 223q-132 0 -254 -92l-18 86q64 38 138.5 62t141.5 24q248 0 248 -274v-463h-90v143q-21 -38 -49 -67.5t-61.5 -50t-71 -31.5t-76.5 -11q-53 0 -94 16t-70 43.5t-44 64.5t-15 79zM149 906 q0 -57 34 -91.5t106 -34.5q24 0 55 5.5t64 22t64.5 46t56.5 77.5v146q-25 3 -62 9t-78.5 7t-83 -5t-75.5 -26.5t-56 -57.5t-25 -98z" />
<glyph unicode="&#xab;" horiz-adv-x="794" d="M30 537l276 344h113l-281 -344l281 -336h-113zM347 537l277 344h114l-282 -344l280 -336h-112z" />
<glyph unicode="&#xac;" horiz-adv-x="982" d="M3 555v84h907v-492h-86v408h-821z" />
<glyph unicode="&#xad;" horiz-adv-x="690" d="M71 555v90h547v-90h-547z" />
<glyph unicode="&#xae;" horiz-adv-x="1591" d="M49 715q0 310 219 526q220 217 526 217q308 0 528 -217t220 -524q0 -308 -219 -525q-217 -217 -527 -217q-312 0 -529 216q-218 216 -218 524zM129 715q0 -273 195 -469q193 -195 470 -195t472 196q196 196 196 468q0 274 -197 471q-196 196 -471 196q-273 0 -469 -196 t-196 -471zM522 242v966h264q79 0 141 -18.5t104.5 -51.5t64.5 -80t22 -104q0 -222 -252 -268l287 -444h-105l-262 428h-172v-428h-92zM614 741h194q49 0 88.5 14.5t67.5 40.5t43.5 62t15.5 80q0 199 -239 199h-170v-396z" />
<glyph unicode="&#xaf;" horiz-adv-x="850" d="M71 1641v90h850v-90h-850z" />
<glyph unicode="&#xb0;" horiz-adv-x="602" d="M49 1184q0 51 20 96.5t54 79.5t79.5 54t96.5 20q52 0 98.5 -20t81 -54.5t54.5 -79.5t20 -96t-19.5 -97.5t-53.5 -81t-79.5 -55t-97.5 -20.5t-98 20.5t-80.5 55t-55 80.5t-20.5 98zM131 1184q0 -36 13 -68.5t36 -57t53.5 -38.5t65.5 -14t66 14t54 38.5t36.5 57t13.5 68.5 t-13 68t-35.5 55.5t-53 37t-64.5 13.5q-35 0 -66 -14t-54.5 -37.5t-37.5 -55t-14 -67.5z" />
<glyph unicode="&#xb1;" horiz-adv-x="919" d="M6 0v84h907v-84h-907zM6 633v84h412v411h84v-411h411v-84h-411v-412h-84v412h-412z" />
<glyph unicode="&#xb2;" horiz-adv-x="674" d="M53 884v100l239 234q61 59 97.5 102t56 77t25.5 62.5t6 59.5q0 153 -158 153q-108 0 -221 -98v102q57 38 112 58t115 20q57 0 102 -16t76.5 -45.5t48.5 -70.5t17 -91q0 -39 -9.5 -77.5t-34 -81.5t-67 -93.5t-108.5 -114.5l-193 -186v-4h414v-90h-518z" />
<glyph unicode="&#xb3;" horiz-adv-x="674" d="M51 906v96q100 -63 195 -63q91 0 141.5 47t50.5 125q0 168 -235 168h-70v80h61q215 0 215 172q0 137 -153 137q-71 0 -172 -53v90q49 23 96.5 34t93.5 11q52 0 93.5 -15t70.5 -42.5t44.5 -65.5t15.5 -84q0 -163 -148 -215v-4q85 -19 129.5 -77t44.5 -136q0 -54 -19 -100 t-55 -79.5t-88 -53t-118 -19.5q-107 0 -193 47z" />
<glyph unicode="&#xb4;" horiz-adv-x="359" d="M12 1188l234 328h104l-248 -328h-90z" />
<glyph unicode="&#xb5;" horiz-adv-x="887" d="M71 -391v1415h92v-569q0 -105 17 -180t52.5 -123t89 -70.5t126.5 -22.5t132 28t100.5 79t64 121.5t22.5 156.5v580h92v-1024h-92v186h-4q-105 -211 -330 -211q-177 0 -262 123h-8v-489h-92z" />
<glyph unicode="&#xb6;" horiz-adv-x="823" d="M32 1167q0 61 20.5 110.5t55.5 84t81.5 53.5t98.5 19h495v-86h-131v-1348h-86v1348h-198v-1348h-87v903q-53 0 -98 20.5t-79 56t-53 83.5t-19 104z" />
<glyph unicode="&#xb7;" horiz-adv-x="262" d="M51 707q0 34 23 56.5t57 22.5t58 -22.5t24 -56.5t-24 -58t-58 -24t-57 24t-23 58z" />
<glyph unicode="&#xb8;" horiz-adv-x="415" d="M58 -356q49 -6 86 -6q160 0 160 92q0 86 -145 86q-16 0 -32 -1t-32 -3v188h72v-117q225 0 225 -147q0 -170 -254 -170q-18 0 -38 1t-42 3v74z" />
<glyph unicode="&#xb9;" horiz-adv-x="674" d="M37 1578v88l295 94v-794h190v-82h-471v82h195v682z" />
<glyph unicode="&#xba;" horiz-adv-x="798" d="M51 1073q0 90 26 160.5t73 119.5t112 75t143 26q79 0 142 -26t107.5 -75t68.5 -119.5t24 -158.5q0 -81 -24.5 -150t-69.5 -120t-109.5 -80t-144.5 -29t-144 28t-109.5 78.5t-70 119.5t-24.5 151zM145 1071q0 -66 18.5 -120.5t52 -92.5t80.5 -59t105 -21q121 0 185.5 78.5 t64.5 220.5q0 139 -65 218t-183 79q-59 0 -106.5 -21t-81 -60t-52 -95.5t-18.5 -126.5z" />
<glyph unicode="&#xbb;" horiz-adv-x="797" d="M57 201l285 344l-285 336h115l276 -336l-274 -344h-117zM376 201l283 344l-283 336h113l278 -336l-278 -344h-113z" />
<glyph unicode="&#xbc;" horiz-adv-x="1437" d="M41 1278v88l295 94v-876h-86v764zM336 0l784 1434h96l-860 -1434h-20zM809 219v64l385 567h90v-553h110v-78h-110l-68 -219h-14v219h-393zM909 297h293v444h-2q-17 -31 -28.5 -50t-16.5 -27z" />
<glyph unicode="&#xbd;" horiz-adv-x="1510" d="M41 1278v88l295 94v-876h-86v764zM260 0l862 1434h96l-860 -1434h-98zM952 0v100l240 234q60 59 96.5 102t56 77t25.5 63t6 59q0 153 -158 153q-111 0 -221 -98v103q113 77 227 77q57 0 102 -16t76.5 -45.5t48.5 -70.5t17 -91q0 -38 -9.5 -76t-34 -81t-67 -94 t-108.5 -115l-193 -187v-4h414v-90h-518z" />
<glyph unicode="&#xbe;" horiz-adv-x="1463" d="M38 606v96q100 -63 195 -63q91 0 141.5 47t50.5 125q0 168 -235 168h-70v80h61q215 0 215 172q0 137 -153 137q-71 0 -172 -53v90q49 23 96.5 34t93.5 11q52 0 93.5 -15t70.5 -42.5t44.5 -65.5t15.5 -84q0 -163 -148 -215v-4q85 -19 129.5 -77t44.5 -136q0 -54 -19 -100 t-55 -79.5t-88 -53t-118 -19.5q-107 0 -193 47zM282 0l862 1434h96l-860 -1434h-98zM833 219v64l385 567h90v-553h110v-78h-110l-68 -219h-14v219h-393zM933 297h293v444h-2q-17 -31 -28.5 -50t-16.5 -27z" />
<glyph unicode="&#xbf;" horiz-adv-x="720" d="M16 -119q0 57 16 104t41.5 87t58.5 75t67 68q52 50 86 84.5t53 62.5t26.5 54.5t7.5 62.5q0 46 -8 83.5t-16 63.5h81q10 -25 17.5 -65.5t7.5 -80.5q0 -47 -12.5 -85.5t-35.5 -72.5t-54.5 -66t-68.5 -65q-32 -29 -63 -60.5t-55 -67.5t-38.5 -78.5t-14.5 -93.5 q0 -55 18.5 -98.5t51.5 -74t79.5 -46.5t102.5 -16q46 0 90.5 9t83 24.5t70 36t52.5 43.5l51 -65q-48 -43 -90 -70t-83 -42t-83.5 -20.5t-91.5 -5.5q-74 0 -137.5 21t-110 61.5t-73 99t-26.5 133.5zM312 961q0 34 23.5 57.5t58.5 23.5q34 0 56.5 -23.5t22.5 -57.5 q0 -35 -22.5 -57.5t-56.5 -22.5q-35 0 -58.5 22.5t-23.5 57.5z" />
<glyph unicode="&#xc0;" d="M28 0l541 1434h94l535 -1434h-111l-164 446h-622l-164 -446h-109zM336 537h553l-242 663q-11 28 -18 55t-15 54h-4q-16 -65 -33 -107zM444 1926h104l234 -328h-90z" />
<glyph unicode="&#xc1;" d="M28 0l541 1434h94l535 -1434h-111l-164 446h-622l-164 -446h-109zM336 537h553l-242 663q-11 28 -18 55t-15 54h-4q-16 -65 -33 -107zM444 1598l234 328h104l-248 -328h-90z" />
<glyph unicode="&#xc2;" d="M28 0l541 1434h94l535 -1434h-111l-164 446h-622l-164 -446h-109zM336 537h553l-242 663q-11 28 -18 55t-15 54h-4q-16 -65 -33 -107zM371 1598l221 336h45l219 -336h-86l-157 239l-160 -239h-82z" />
<glyph unicode="&#xc3;" d="M28 0l541 1434h94l535 -1434h-111l-164 446h-622l-164 -446h-109zM302 1598q0 49 12.5 90t36 70t56 45t71.5 16q73 0 160 -72q35 -29 63 -44t54 -15q40 0 68 36.5t28 108.5h74q0 -103 -48.5 -163t-130.5 -60q-65 0 -151 76q-32 28 -62.5 41.5t-56.5 13.5 q-102 0 -102 -143h-72zM336 537h553l-242 663q-11 28 -18 55t-15 54h-4q-16 -65 -33 -107z" />
<glyph unicode="&#xc4;" d="M28 0l541 1434h94l535 -1434h-111l-164 446h-622l-164 -446h-109zM336 537h553l-242 663q-11 28 -18 55t-15 54h-4q-16 -65 -33 -107zM374 1670q0 31 22 50t48 19q29 0 52 -19.5t23 -49.5q0 -31 -21 -51.5t-52 -20.5q-28 0 -50 19.5t-22 52.5zM708 1670q0 31 21.5 50 t47.5 19q29 0 52.5 -19.5t23.5 -49.5q0 -31 -21.5 -51.5t-52.5 -20.5q-27 0 -49 19.5t-22 52.5z" />
<glyph unicode="&#xc5;" horiz-adv-x="1229" d="M29 0l519 1374q-134 42 -134 176q0 40 16 74t43.5 59t64 38.5t77.5 13.5q42 0 78.5 -13t64 -37.5t43 -58.5t15.5 -76q0 -129 -131 -174l514 -1376h-111l-164 446h-622l-164 -446h-109zM337 537h553l-242 663q-11 28 -18 55t-15 54h-4q-16 -65 -33 -107zM488 1550 q0 -26 9.5 -47.5t27 -36.5t40.5 -23.5t50 -8.5q57 0 93 32t36 84q0 57 -37.5 87t-91.5 30q-57 0 -92 -31.5t-35 -85.5z" />
<glyph unicode="&#xc7;" horiz-adv-x="1193" d="M53 702q0 171 48 310.5t138 238.5t218 153t288 54q115 0 212.5 -33t177.5 -94l-51 -81q-70 58 -159.5 88t-196.5 30q-125 0 -230 -47.5t-181 -134t-119 -207t-43 -266.5q0 -147 39.5 -266.5t113 -204t177 -130.5t231.5 -46q104 0 191.5 27t157.5 80l49 -79 q-81 -59 -180 -89t-216 -30q-152 0 -275 53.5t-209.5 149.5t-133.5 229.5t-47 294.5zM429 -356q49 -6 86 -6q160 0 160 92q0 86 -145 86q-16 0 -32 -1t-32 -3v188h72v-117q225 0 225 -147q0 -170 -254 -170q-18 0 -38 1t-42 3v74z" />
<glyph unicode="&#xc8;" horiz-adv-x="785" d="M79 0v1434h670v-91h-571v-575h530v-90h-530v-588h604v-90h-703zM223 1926h104l234 -328h-90z" />
<glyph unicode="&#xc9;" horiz-adv-x="785" d="M79 0v1434h670v-91h-571v-575h530v-90h-530v-588h604v-90h-703zM223 1598l234 328h104l-248 -328h-90z" />
<glyph unicode="&#xca;" horiz-adv-x="785" d="M79 0v1434h670v-91h-571v-575h530v-90h-530v-588h604v-90h-703zM150 1598l221 336h45l219 -336h-86l-157 239l-160 -239h-82z" />
<glyph unicode="&#xcb;" horiz-adv-x="785" d="M79 0v1434h670v-91h-571v-575h530v-90h-530v-588h604v-90h-703zM153 1670q0 31 22 50t48 19q29 0 52 -19.5t23 -49.5q0 -31 -21 -51.5t-52 -20.5q-28 0 -50 19.5t-22 52.5zM487 1670q0 31 21.5 50t47.5 19q29 0 52.5 -19.5t23.5 -49.5q0 -31 -21.5 -51.5t-52.5 -20.5 q-27 0 -49 19.5t-22 52.5z" />
<glyph unicode="&#xcc;" horiz-adv-x="463" d="M-100 1864h104l234 -328h-90zM77 0v1434h99v-1434h-99z" />
<glyph unicode="&#xcd;" horiz-adv-x="463" d="M45 1536l234 328h104l-248 -328h-90zM77 0v1434h99v-1434h-99z" />
<glyph unicode="&#xce;" horiz-adv-x="463" d="M-108 1537l221 336h45l219 -336h-86l-157 239l-160 -239h-82zM77 0v1434h99v-1434h-99z" />
<glyph unicode="&#xcf;" horiz-adv-x="463" d="M-109 1608q0 31 22 50t48 19q29 0 52 -19.5t23 -49.5q0 -31 -21 -51.5t-52 -20.5q-28 0 -50 19.5t-22 52.5zM77 0v1434h99v-1434h-99zM225 1608q0 31 21.5 50t47.5 19q29 0 52.5 -19.5t23.5 -49.5q0 -31 -21.5 -51.5t-52.5 -20.5q-27 0 -49 19.5t-22 52.5z" />
<glyph unicode="&#xd0;" horiz-adv-x="1331" d="M45 668v88h149v678h359q358 0 543.5 -177.5t185.5 -519.5q0 -165 -52 -301t-149.5 -232.5t-236 -150t-312.5 -53.5h-338v668h-149zM293 90h225q159 0 282 42t207 123.5t128 201.5t44 276q0 610 -641 610h-245v-587h403v-88h-403v-578z" />
<glyph unicode="&#xd1;" horiz-adv-x="1235" d="M75 0v1434h76l848 -1149q14 -19 29 -42t32 -50h5q-2 35 -3.5 65t-1.5 55v1121h99v-1434h-70l-854 1159q-14 17 -24.5 35t-21.5 35l-13 20h-4q1 -13 1.5 -28.5t0.5 -34.5v-1186h-99zM306 1598q0 49 12.5 90t36 70t56 45t71.5 16q73 0 160 -72q35 -29 63 -44t54 -15 q40 0 68 36.5t28 108.5h74q0 -103 -48.5 -163t-130.5 -60q-65 0 -151 76q-32 28 -62.5 41.5t-56.5 13.5q-102 0 -102 -143h-72z" />
<glyph unicode="&#xd2;" horiz-adv-x="1447" d="M53 702q0 171 48 310.5t138 238.5t218 153t288 54q144 0 263.5 -52.5t205 -147t133 -227t47.5 -292.5q0 -177 -48 -318.5t-136.5 -240.5t-213.5 -152t-278 -53q-152 0 -275 53.5t-209.5 149.5t-133.5 229.5t-47 294.5zM155 713q0 -147 39.5 -266.5t113 -204t177 -130.5 t231.5 -46q133 0 239.5 44.5t181.5 129.5t115 206.5t40 276.5q0 151 -39.5 271t-113 203t-178 127t-233.5 44q-125 0 -230 -47.5t-181 -134t-119 -207t-43 -266.5zM554 1926h104l234 -328h-90z" />
<glyph unicode="&#xd3;" horiz-adv-x="1447" d="M53 702q0 171 48 310.5t138 238.5t218 153t288 54q144 0 263.5 -52.5t205 -147t133 -227t47.5 -292.5q0 -177 -48 -318.5t-136.5 -240.5t-213.5 -152t-278 -53q-152 0 -275 53.5t-209.5 149.5t-133.5 229.5t-47 294.5zM155 713q0 -147 39.5 -266.5t113 -204t177 -130.5 t231.5 -46q133 0 239.5 44.5t181.5 129.5t115 206.5t40 276.5q0 151 -39.5 271t-113 203t-178 127t-233.5 44q-125 0 -230 -47.5t-181 -134t-119 -207t-43 -266.5zM554 1598l234 328h104l-248 -328h-90z" />
<glyph unicode="&#xd4;" horiz-adv-x="1447" d="M53 702q0 171 48 310.5t138 238.5t218 153t288 54q144 0 263.5 -52.5t205 -147t133 -227t47.5 -292.5q0 -177 -48 -318.5t-136.5 -240.5t-213.5 -152t-278 -53q-152 0 -275 53.5t-209.5 149.5t-133.5 229.5t-47 294.5zM155 713q0 -147 39.5 -266.5t113 -204t177 -130.5 t231.5 -46q133 0 239.5 44.5t181.5 129.5t115 206.5t40 276.5q0 151 -39.5 271t-113 203t-178 127t-233.5 44q-125 0 -230 -47.5t-181 -134t-119 -207t-43 -266.5zM481 1598l221 336h45l219 -336h-86l-157 239l-160 -239h-82z" />
<glyph unicode="&#xd5;" horiz-adv-x="1447" d="M53 702q0 171 48 310.5t138 238.5t218 153t288 54q144 0 263.5 -52.5t205 -147t133 -227t47.5 -292.5q0 -177 -48 -318.5t-136.5 -240.5t-213.5 -152t-278 -53q-152 0 -275 53.5t-209.5 149.5t-133.5 229.5t-47 294.5zM155 713q0 -147 39.5 -266.5t113 -204t177 -130.5 t231.5 -46q133 0 239.5 44.5t181.5 129.5t115 206.5t40 276.5q0 151 -39.5 271t-113 203t-178 127t-233.5 44q-125 0 -230 -47.5t-181 -134t-119 -207t-43 -266.5zM412 1598q0 49 12.5 90t36 70t56 45t71.5 16q73 0 160 -72q35 -29 63 -44t54 -15q40 0 68 36.5t28 108.5h74 q0 -103 -48.5 -163t-130.5 -60q-65 0 -151 76q-32 28 -62.5 41.5t-56.5 13.5q-102 0 -102 -143h-72z" />
<glyph unicode="&#xd6;" horiz-adv-x="1447" d="M53 702q0 171 48 310.5t138 238.5t218 153t288 54q144 0 263.5 -52.5t205 -147t133 -227t47.5 -292.5q0 -177 -48 -318.5t-136.5 -240.5t-213.5 -152t-278 -53q-152 0 -275 53.5t-209.5 149.5t-133.5 229.5t-47 294.5zM155 713q0 -147 39.5 -266.5t113 -204t177 -130.5 t231.5 -46q133 0 239.5 44.5t181.5 129.5t115 206.5t40 276.5q0 151 -39.5 271t-113 203t-178 127t-233.5 44q-125 0 -230 -47.5t-181 -134t-119 -207t-43 -266.5zM484 1670q0 31 22 50t48 19q29 0 52 -19.5t23 -49.5q0 -31 -21 -51.5t-52 -20.5q-28 0 -50 19.5t-22 52.5z M818 1670q0 31 21.5 50t47.5 19q29 0 52.5 -19.5t23.5 -49.5q0 -31 -21.5 -51.5t-52.5 -20.5q-27 0 -49 19.5t-22 52.5z" />
<glyph unicode="&#xd7;" horiz-adv-x="911" d="M62 262l334 334l-334 336l60 59l334 -336l333 336l60 -59l-334 -336l334 -334l-60 -59l-333 336l-334 -336z" />
<glyph unicode="&#xd8;" horiz-adv-x="1470" d="M51 -4l178 213q-153 199 -153 493q0 171 48 310.5t138 238.5t218 153t288 54q235 0 399 -131l139 166l64 -53l-141 -168q188 -203 188 -533q0 -177 -48 -318.5t-136.5 -240.5t-213.5 -152t-278 -53q-276 0 -457 172l-170 -202zM178 713q0 -258 117 -426l811 966 q-142 115 -355 115q-125 0 -230 -47.5t-181 -134t-119 -207t-43 -266.5zM348 223q153 -157 391 -157q133 0 239.5 44.5t181.5 129.5t115 206.5t40 276.5q0 297 -150 473z" />
<glyph unicode="&#xd9;" horiz-adv-x="1327" d="M65 551v883h98v-869q0 -499 406 -499q393 0 393 485v883h98v-861q0 -598 -510 -598q-485 0 -485 576zM368 1864h104l234 -328h-90z" />
<glyph unicode="&#xda;" horiz-adv-x="1327" d="M65 551v883h98v-869q0 -499 406 -499q393 0 393 485v883h98v-861q0 -598 -510 -598q-485 0 -485 576zM448 1535l234 328h104l-248 -328h-90z" />
<glyph unicode="&#xdb;" horiz-adv-x="1327" d="M65 551v883h98v-869q0 -499 406 -499q393 0 393 485v883h98v-861q0 -598 -510 -598q-485 0 -485 576zM358 1537l221 336h45l219 -336h-86l-157 239l-160 -239h-82z" />
<glyph unicode="&#xdc;" horiz-adv-x="1327" d="M65 551v883h98v-869q0 -499 406 -499q393 0 393 485v883h98v-861q0 -598 -510 -598q-485 0 -485 576zM350 1609q0 31 22 50t48 19q29 0 52 -19.5t23 -49.5q0 -31 -21 -51.5t-52 -20.5q-28 0 -50 19.5t-22 52.5zM684 1609q0 31 21.5 50t47.5 19q29 0 52.5 -19.5 t23.5 -49.5q0 -31 -21.5 -51.5t-52.5 -20.5q-27 0 -49 19.5t-22 52.5z" />
<glyph unicode="&#xdd;" horiz-adv-x="1106" d="M22 1434h111l334 -691q9 -19 20.5 -45.5t24.5 -60.5h4q7 19 19.5 44.5t29.5 59.5l350 693h107l-463 -889v-545h-98v543zM317 1567l234 328h104l-248 -328h-90z" />
<glyph unicode="&#xde;" horiz-adv-x="876" d="M71 0v1434h99v-238h247q455 0 455 -403q0 -102 -34.5 -185.5t-99 -143.5t-157 -93t-209.5 -33h-202v-338h-99zM170 428h204q193 0 294.5 90.5t101.5 261.5q0 326 -371 326h-229v-678z" />
<glyph unicode="&#xdf;" horiz-adv-x="920" d="M67 2v1040q0 142 26.5 236.5t75 151t117 79.5t152.5 23q74 0 135 -24t104.5 -68t67.5 -105.5t24 -136.5q0 -264 -256 -375v-4q84 -22 151.5 -63.5t115 -98t73 -125.5t25.5 -145q0 -88 -29 -163.5t-81.5 -130.5t-126 -86.5t-163.5 -31.5q-18 0 -44.5 4t-53 10.5t-49.5 14 t-33 14.5l35 70q76 -29 141 -29q71 0 128 23.5t97 66t61.5 101.5t21.5 131q0 78 -28 142.5t-81 114.5t-130.5 84t-176.5 50v80q307 70 307 332q0 61 -16.5 110t-48 83t-77 52.5t-102.5 18.5q-65 0 -115 -18t-84.5 -64.5t-52.5 -128.5t-18 -209v-1026h-92z" />
<glyph unicode="&#xe0;" horiz-adv-x="1012" d="M47 264q2 88 36.5 148.5t90.5 99t126.5 57.5t144.5 24.5t145 -0.5t127 -17l-1 93q-12 296 -247 296q-183 0 -317 -122l-58 61q139 145 384 145q160 0 245.5 -97t85.5 -286v-666h-92v161q-14 -35 -50 -68t-84.5 -59.5t-105.5 -42.5t-114 -16q-73 0 -131.5 22t-99.5 60.5 t-63 91.5t-22 115zM144 268q0 -46 15.5 -84.5t45 -66t72 -43t96.5 -15.5q147 0 239 74q93 76 103 127v239q-45 9 -105 14.5t-123.5 2.5t-125 -16t-110 -41.5t-78 -75t-29.5 -115.5zM204 1516h104l234 -328h-90z" />
<glyph unicode="&#xe1;" horiz-adv-x="1012" d="M47 264q2 88 36.5 148.5t90.5 99t126.5 57.5t144.5 24.5t145 -0.5t127 -17l-1 93q-12 296 -247 296q-183 0 -317 -122l-58 61q139 145 384 145q160 0 245.5 -97t85.5 -286v-666h-92v161q-14 -35 -50 -68t-84.5 -59.5t-105.5 -42.5t-114 -16q-73 0 -131.5 22t-99.5 60.5 t-63 91.5t-22 115zM144 268q0 -46 15.5 -84.5t45 -66t72 -43t96.5 -15.5q147 0 239 74q93 76 103 127v239q-45 9 -105 14.5t-123.5 2.5t-125 -16t-110 -41.5t-78 -75t-29.5 -115.5zM237 1188l234 328h104l-248 -328h-90z" />
<glyph unicode="&#xe2;" horiz-adv-x="1012" d="M47 264q2 88 36.5 148.5t90.5 99t126.5 57.5t144.5 24.5t145 -0.5t127 -17l-1 93q-12 296 -247 296q-183 0 -317 -122l-58 61q139 145 384 145q160 0 245.5 -97t85.5 -286v-666h-92v161q-14 -35 -50 -68t-84.5 -59.5t-105.5 -42.5t-114 -16q-73 0 -131.5 22t-99.5 60.5 t-63 91.5t-22 115zM144 268q0 -46 15.5 -84.5t45 -66t72 -43t96.5 -15.5q147 0 239 74q93 76 103 127v239q-45 9 -105 14.5t-123.5 2.5t-125 -16t-110 -41.5t-78 -75t-29.5 -115.5zM169 1188l221 336h45l219 -336h-86l-157 239l-160 -239h-82z" />
<glyph unicode="&#xe3;" horiz-adv-x="1012" d="M47 264q2 88 36.5 148.5t90.5 99t126.5 57.5t144.5 24.5t145 -0.5t127 -17l-1 93q-12 296 -247 296q-183 0 -317 -122l-58 61q139 145 384 145q160 0 245.5 -97t85.5 -286v-666h-92v161q-14 -35 -50 -68t-84.5 -59.5t-105.5 -42.5t-114 -16q-73 0 -131.5 22t-99.5 60.5 t-63 91.5t-22 115zM144 268q0 -46 15.5 -84.5t45 -66t72 -43t96.5 -15.5q147 0 239 74q93 76 103 127v239q-45 9 -105 14.5t-123.5 2.5t-125 -16t-110 -41.5t-78 -75t-29.5 -115.5zM214 1188q0 49 12.5 90t36 70t56 45t71.5 16q73 0 160 -72q35 -29 63 -44t54 -15 q40 0 68 36.5t28 108.5h74q0 -103 -48.5 -163t-130.5 -60q-65 0 -151 76q-32 28 -62.5 41.5t-56.5 13.5q-102 0 -102 -143h-72z" />
<glyph unicode="&#xe4;" horiz-adv-x="1012" d="M47 264q2 88 36.5 148.5t90.5 99t126.5 57.5t144.5 24.5t145 -0.5t127 -17l-1 93q-12 296 -247 296q-183 0 -317 -122l-58 61q139 145 384 145q160 0 245.5 -97t85.5 -286v-666h-92v161q-14 -35 -50 -68t-84.5 -59.5t-105.5 -42.5t-114 -16q-73 0 -131.5 22t-99.5 60.5 t-63 91.5t-22 115zM144 268q0 -46 15.5 -84.5t45 -66t72 -43t96.5 -15.5q147 0 239 74q93 76 103 127v239q-45 9 -105 14.5t-123.5 2.5t-125 -16t-110 -41.5t-78 -75t-29.5 -115.5zM155 1260q0 31 22 50t48 19q29 0 52 -19.5t23 -49.5q0 -31 -21 -51.5t-52 -20.5 q-28 0 -50 19.5t-22 52.5zM489 1260q0 31 21.5 50t47.5 19q29 0 52.5 -19.5t23.5 -49.5q0 -31 -21.5 -51.5t-52.5 -20.5q-27 0 -49 19.5t-22 52.5z" />
<glyph unicode="&#xe5;" horiz-adv-x="849" d="M29 264q8 81 42.5 143t87 103.5t119 62.5t138.5 21t144.5 -20.5t138.5 -65.5l-1 161q-12 296 -247 296q-183 0 -317 -122l-58 61q139 145 384 145q160 0 245.5 -97t85.5 -286v-666h-92v161q-14 -35 -50 -68t-84.5 -59.5t-105.5 -42.5t-114 -16q-73 0 -131.5 22 t-99.5 60.5t-63 91.5t-22 115zM126 268q0 -46 15.5 -84.5t45 -66t72 -43t96.5 -15.5q147 0 239 74q93 76 103 127v168q-69 46 -137 67t-134 21q-63 0 -117.5 -18t-95 -51t-64 -78.5t-23.5 -100.5zM302 1372q0 40 15 73.5t42 58t63.5 38.5t80.5 14q43 0 80 -13.5t64 -37.5 t42 -58t15 -75q0 -40 -15.5 -73.5t-43 -58t-64 -38.5t-78.5 -14t-79 13t-64 37t-42.5 58t-15.5 76zM376 1372q0 -27 9.5 -48.5t27 -36.5t40.5 -23.5t50 -8.5q57 0 93 32.5t36 84.5q0 57 -37.5 87t-91.5 30q-57 0 -92 -31.5t-35 -85.5z" />
<glyph unicode="&#xe7;" horiz-adv-x="909" d="M51 506q0 127 35.5 228t101 171t157 107t202.5 37q83 0 152.5 -21t126.5 -62l-50 -71q-93 70 -233 70q-90 0 -163 -31.5t-125 -90.5t-80 -144.5t-28 -194.5q0 -100 27 -182t78 -140.5t123.5 -90.5t163.5 -32q74 0 133.5 19.5t106.5 57.5l44 -73q-58 -42 -130 -65 t-157 -23q-113 0 -203 39t-152.5 109.5t-96 168t-33.5 214.5zM404 -356q49 -6 86 -6q160 0 160 92q0 86 -145 86q-16 0 -32 -1t-32 -3v188h72v-117q225 0 225 -147q0 -170 -254 -170q-18 0 -38 1t-42 3v74z" />
<glyph unicode="&#xe8;" horiz-adv-x="1034" d="M50 518q0 111 33.5 207.5t94 168.5t145 113.5t186.5 41.5q96 0 169.5 -35t123.5 -99.5t76 -157.5t26 -208v-41h-758q0 -106 25 -189.5t72.5 -141t115 -88t152.5 -30.5q174 0 307 109l42 -69q-172 -124 -368 -124q-99 0 -180 36.5t-139.5 106t-90.5 170.5t-32 230z M150 592h658q-3 88 -24.5 157.5t-60.5 117.5t-94 73t-124 25q-72 0 -132 -24.5t-106 -71.5t-76 -117t-41 -160zM254 1516h104l234 -328h-90z" />
<glyph unicode="&#xe9;" horiz-adv-x="1034" d="M50 518q0 111 33.5 207.5t94 168.5t145 113.5t186.5 41.5q96 0 169.5 -35t123.5 -99.5t76 -157.5t26 -208v-41h-758q0 -106 25 -189.5t72.5 -141t115 -88t152.5 -30.5q174 0 307 109l42 -69q-172 -124 -368 -124q-99 0 -180 36.5t-139.5 106t-90.5 170.5t-32 230z M150 592h658q-3 88 -24.5 157.5t-60.5 117.5t-94 73t-124 25q-72 0 -132 -24.5t-106 -71.5t-76 -117t-41 -160zM274 1188l234 328h104l-248 -328h-90z" />
<glyph unicode="&#xea;" horiz-adv-x="1034" d="M50 518q0 111 33.5 207.5t94 168.5t145 113.5t186.5 41.5q96 0 169.5 -35t123.5 -99.5t76 -157.5t26 -208v-41h-758q0 -106 25 -189.5t72.5 -141t115 -88t152.5 -30.5q174 0 307 109l42 -69q-172 -124 -368 -124q-99 0 -180 36.5t-139.5 106t-90.5 170.5t-32 230z M150 592h658q-3 88 -24.5 157.5t-60.5 117.5t-94 73t-124 25q-72 0 -132 -24.5t-106 -71.5t-76 -117t-41 -160zM203 1188l221 336h45l219 -336h-86l-157 239l-160 -239h-82z" />
<glyph unicode="&#xeb;" horiz-adv-x="1034" d="M50 518q0 111 33.5 207.5t94 168.5t145 113.5t186.5 41.5q96 0 169.5 -35t123.5 -99.5t76 -157.5t26 -208v-41h-758q0 -106 25 -189.5t72.5 -141t115 -88t152.5 -30.5q174 0 307 109l42 -69q-172 -124 -368 -124q-99 0 -180 36.5t-139.5 106t-90.5 170.5t-32 230z M150 592h658q-3 88 -24.5 157.5t-60.5 117.5t-94 73t-124 25q-72 0 -132 -24.5t-106 -71.5t-76 -117t-41 -160zM192 1260q0 31 22 50t48 19q29 0 52 -19.5t23 -49.5q0 -31 -21 -51.5t-52 -20.5q-28 0 -50 19.5t-22 52.5zM526 1260q0 31 21.5 50t47.5 19q29 0 52.5 -19.5 t23.5 -49.5q0 -31 -21.5 -51.5t-52.5 -20.5q-27 0 -49 19.5t-22 52.5z" />
<glyph unicode="&#xec;" horiz-adv-x="380" d="M2 1516h104l234 -328h-90zM227 0v1024h92v-1024h-92z" />
<glyph unicode="&#xed;" horiz-adv-x="364" d="M-106 1188l234 328h104l-248 -328h-90zM100 0v1024h92v-1024h-92z" />
<glyph unicode="&#xee;" horiz-adv-x="509" d="M-90 1188l221 336h45l219 -336h-86l-157 239l-160 -239h-82zM206 0v1024h92v-1024h-92z" />
<glyph unicode="&#xef;" horiz-adv-x="497" d="M-96 1260q0 31 22 50t48 19q29 0 52 -19.5t23 -49.5q0 -31 -21 -51.5t-52 -20.5q-28 0 -50 19.5t-22 52.5zM201 0v1024h92v-1024h-92zM238 1260q0 31 21.5 50t47.5 19q29 0 52.5 -19.5t23.5 -49.5q0 -31 -21.5 -51.5t-52.5 -20.5q-27 0 -49 19.5t-22 52.5z" />
<glyph unicode="&#xf0;" horiz-adv-x="995" d="M38 506q0 120 33.5 220t95 171.5t147.5 111.5t191 40q146 0 244 -93l4 5q-52 91 -106.5 164.5t-112.5 131.5l-299 -149l-35 70l276 133q-64 58 -126.5 107.5t-125.5 94.5h150q42 -29 87 -67.5t99 -87.5l301 149l35 -71l-280 -136q81 -84 143 -180t103.5 -197.5t63 -206 t21.5 -206.5q0 -116 -31 -214.5t-89.5 -169.5t-142.5 -111t-189 -40q-111 0 -196.5 38t-143 107.5t-87.5 167.5t-30 218zM134 504q0 -104 25 -186t72 -140t114 -88.5t152 -30.5q82 0 147.5 32t111.5 91.5t70.5 143t24.5 186.5q0 453 -346 453q-84 0 -152 -33.5t-117 -94.5 t-75.5 -145.5t-26.5 -187.5z" />
<glyph unicode="&#xf1;" horiz-adv-x="1096" d="M71 0v1024h92v-170q66 100 144.5 147.5t172.5 47.5q55 0 113 -23.5t105 -71.5t77.5 -122t30.5 -174v-658h-92v623q0 342 -260 342q-188 -16 -291 -208v-757h-92zM286 1188q0 49 12.5 90t36 70t56 45t71.5 16q73 0 160 -72q35 -29 63 -44t54 -15q40 0 68 36.5t28 108.5h74 q0 -103 -48.5 -163t-130.5 -60q-65 0 -151 76q-32 28 -62.5 41.5t-56.5 13.5q-102 0 -102 -143h-72z" />
<glyph unicode="&#xf2;" horiz-adv-x="1149" d="M51 506q0 127 35.5 228t101 171t157 107t202.5 37q109 0 196.5 -37t149 -106.5t94.5 -169.5t33 -226q0 -118 -33.5 -216t-96 -169t-152.5 -110.5t-202 -39.5q-113 0 -203 39t-152.5 109.5t-96 168t-33.5 214.5zM147 504q0 -100 27 -182t78 -140.5t123.5 -90.5t163.5 -32 q92 0 164 31t121 89.5t74.5 142.5t25.5 190q0 221 -98.5 337t-282.5 116q-90 0 -163 -31.5t-125 -90.5t-80 -144.5t-28 -194.5zM277 1516h104l234 -328h-90z" />
<glyph unicode="&#xf3;" horiz-adv-x="1149" d="M51 506q0 127 35.5 228t101 171t157 107t202.5 37q109 0 196.5 -37t149 -106.5t94.5 -169.5t33 -226q0 -118 -33.5 -216t-96 -169t-152.5 -110.5t-202 -39.5q-113 0 -203 39t-152.5 109.5t-96 168t-33.5 214.5zM147 504q0 -100 27 -182t78 -140.5t123.5 -90.5t163.5 -32 q92 0 164 31t121 89.5t74.5 142.5t25.5 190q0 221 -98.5 337t-282.5 116q-90 0 -163 -31.5t-125 -90.5t-80 -144.5t-28 -194.5zM326 1188l234 328h104l-248 -328h-90z" />
<glyph unicode="&#xf4;" horiz-adv-x="1149" d="M51 506q0 127 35.5 228t101 171t157 107t202.5 37q109 0 196.5 -37t149 -106.5t94.5 -169.5t33 -226q0 -118 -33.5 -216t-96 -169t-152.5 -110.5t-202 -39.5q-113 0 -203 39t-152.5 109.5t-96 168t-33.5 214.5zM147 504q0 -100 27 -182t78 -140.5t123.5 -90.5t163.5 -32 q92 0 164 31t121 89.5t74.5 142.5t25.5 190q0 221 -98.5 337t-282.5 116q-90 0 -163 -31.5t-125 -90.5t-80 -144.5t-28 -194.5zM247 1188l221 336h45l219 -336h-86l-157 239l-160 -239h-82z" />
<glyph unicode="&#xf5;" horiz-adv-x="1149" d="M51 506q0 127 35.5 228t101 171t157 107t202.5 37q109 0 196.5 -37t149 -106.5t94.5 -169.5t33 -226q0 -118 -33.5 -216t-96 -169t-152.5 -110.5t-202 -39.5q-113 0 -203 39t-152.5 109.5t-96 168t-33.5 214.5zM147 504q0 -100 27 -182t78 -140.5t123.5 -90.5t163.5 -32 q92 0 164 31t121 89.5t74.5 142.5t25.5 190q0 221 -98.5 337t-282.5 116q-90 0 -163 -31.5t-125 -90.5t-80 -144.5t-28 -194.5zM301 1188q0 49 12.5 90t36 70t56 45t71.5 16q73 0 160 -72q35 -29 63 -44t54 -15q40 0 68 36.5t28 108.5h74q0 -103 -48.5 -163t-130.5 -60 q-65 0 -151 76q-32 28 -62.5 41.5t-56.5 13.5q-102 0 -102 -143h-72z" />
<glyph unicode="&#xf6;" horiz-adv-x="1149" d="M51 506q0 127 35.5 228t101 171t157 107t202.5 37q109 0 196.5 -37t149 -106.5t94.5 -169.5t33 -226q0 -118 -33.5 -216t-96 -169t-152.5 -110.5t-202 -39.5q-113 0 -203 39t-152.5 109.5t-96 168t-33.5 214.5zM147 504q0 -100 27 -182t78 -140.5t123.5 -90.5t163.5 -32 q92 0 164 31t121 89.5t74.5 142.5t25.5 190q0 221 -98.5 337t-282.5 116q-90 0 -163 -31.5t-125 -90.5t-80 -144.5t-28 -194.5zM239 1260q0 31 22 50t48 19q29 0 52 -19.5t23 -49.5q0 -31 -21 -51.5t-52 -20.5q-28 0 -50 19.5t-22 52.5zM573 1260q0 31 21.5 50t47.5 19 q29 0 52.5 -19.5t23.5 -49.5q0 -31 -21.5 -51.5t-52.5 -20.5q-27 0 -49 19.5t-22 52.5z" />
<glyph unicode="&#xf7;" horiz-adv-x="919" d="M6 555v84h907v-84h-907zM383 252q0 32 23 54t55 22t53.5 -22t21.5 -54t-21.5 -55t-53.5 -23t-55 23t-23 55zM383 944q0 32 23 54t55 22t53.5 -22t21.5 -54t-21.5 -55t-53.5 -23t-55 23t-23 55z" />
<glyph unicode="&#xf8;" horiz-adv-x="1192" d="M41 -39l170 189q-109 145 -109 356q0 127 35.5 228t101 171t157 107t202.5 37q200 0 321 -115l172 190l62 -55l-180 -199q98 -140 98 -360q0 -118 -33.5 -216t-96 -169t-152.5 -110.5t-202 -39.5q-191 0 -319 113l-166 -184zM198 504q0 -167 76 -285l584 647 q-99 99 -264 99q-90 0 -163 -31.5t-125 -90.5t-80 -144.5t-28 -194.5zM327 156q103 -97 263 -97q92 0 164 31t121 89.5t74.5 142.5t25.5 190q0 171 -66 287z" />
<glyph unicode="&#xf9;" horiz-adv-x="1096" d="M63 432v592h93v-569q0 -105 17 -180t52 -123t89 -70.5t128 -22.5q191 0 318 220v745h92v-1024h-92v186q-140 -212 -317 -212q-190 0 -285 110t-95 348zM243 1516h104l234 -328h-90z" />
<glyph unicode="&#xfa;" horiz-adv-x="1096" d="M63 432v592h93v-569q0 -105 17 -180t52 -123t89 -70.5t128 -22.5q191 0 318 220v745h92v-1024h-92v186q-140 -212 -317 -212q-190 0 -285 110t-95 348zM328 1188l234 328h104l-248 -328h-90z" />
<glyph unicode="&#xfb;" horiz-adv-x="1096" d="M63 432v592h93v-569q0 -105 17 -180t52 -123t89 -70.5t128 -22.5q191 0 318 220v745h92v-1024h-92v186q-140 -212 -317 -212q-190 0 -285 110t-95 348zM225 1188l221 336h45l219 -336h-86l-157 239l-160 -239h-82z" />
<glyph unicode="&#xfc;" horiz-adv-x="1096" d="M63 432v592h93v-569q0 -105 17 -180t52 -123t89 -70.5t128 -22.5q191 0 318 220v745h92v-1024h-92v186q-140 -212 -317 -212q-190 0 -285 110t-95 348zM225 1260q0 31 22 50t48 19q29 0 52 -19.5t23 -49.5q0 -31 -21 -51.5t-52 -20.5q-28 0 -50 19.5t-22 52.5zM559 1260 q0 31 21.5 50t47.5 19q29 0 52.5 -19.5t23.5 -49.5q0 -31 -21.5 -51.5t-52.5 -20.5q-27 0 -49 19.5t-22 52.5z" />
<glyph unicode="&#xfd;" horiz-adv-x="928" d="M47 1024h103l309 -834l25 -78l26 72l330 840h100l-499 -1233q-28 -69 -58 -120t-66 -85t-78.5 -50.5t-96.5 -16.5q-43 0 -80 14l28 84q7 -6 56 -6q123 0 194 170l95 227zM233 1188l234 328h104l-248 -328h-90z" />
<glyph unicode="&#xfe;" horiz-adv-x="966" d="M71 -471v1987h92v-703q29 56 70 100t91.5 74t107.5 46t118 16q97 0 173.5 -35t130 -100t82 -157.5t28.5 -207.5q0 -126 -32.5 -231.5t-92.5 -181.5t-144.5 -118.5t-187.5 -42.5q-230 0 -344 207v-653h-92zM163 255q97 -196 352 -196q79 0 144 35.5t111.5 100t72 154.5 t25.5 198q0 96 -23.5 173t-66.5 131.5t-104 84t-136 29.5q-128 0 -220 -63t-155 -189v-458z" />
<glyph unicode="&#xff;" horiz-adv-x="922" d="M21 1024h103l309 -834l25 -78l26 72l330 840h100l-499 -1233q-28 -69 -58 -120t-66 -85t-78.5 -50.5t-96.5 -16.5q-43 0 -80 14l28 84q7 -6 56 -6q123 0 194 170l95 227zM232 1260q0 31 22 50t48 19q29 0 52 -19.5t23 -49.5q0 -31 -21 -51.5t-52 -20.5q-28 0 -50 19.5 t-22 52.5zM566 1260q0 31 21.5 50t47.5 19q29 0 52.5 -19.5t23.5 -49.5q0 -31 -21.5 -51.5t-52.5 -20.5q-27 0 -49 19.5t-22 52.5z" />
<glyph unicode="&#x178;" horiz-adv-x="1106" d="M22 1434h111l334 -691q9 -19 20.5 -45.5t24.5 -60.5h4q7 19 19.5 44.5t29.5 59.5l350 693h107l-463 -889v-545h-98v543zM206 1607q0 31 22 50t48 19q29 0 52 -19.5t23 -49.5q0 -31 -21 -51.5t-52 -20.5q-28 0 -50 19.5t-22 52.5zM540 1607q0 31 21.5 50t47.5 19 q29 0 52.5 -19.5t23.5 -49.5q0 -31 -21.5 -51.5t-52.5 -20.5q-27 0 -49 19.5t-22 52.5z" />
<glyph unicode="&#x2c6;" horiz-adv-x="539" d="M27 1188l221 336h45l219 -336h-86l-157 239l-160 -239h-82z" />
<glyph unicode="&#x2dc;" horiz-adv-x="730" d="M54 1188q0 49 12.5 90t36 70t56 45t71.5 16q73 0 160 -72q35 -29 63 -44t54 -15q40 0 68 36.5t28 108.5h74q0 -103 -48.5 -163t-130.5 -60q-65 0 -151 76q-32 28 -62.5 41.5t-56.5 13.5q-102 0 -102 -143h-72z" />
<glyph unicode="&#x2000;" horiz-adv-x="967" />
<glyph unicode="&#x2001;" horiz-adv-x="1934" />
<glyph unicode="&#x2002;" horiz-adv-x="967" />
<glyph unicode="&#x2003;" horiz-adv-x="1934" />
<glyph unicode="&#x2004;" horiz-adv-x="644" />
<glyph unicode="&#x2005;" horiz-adv-x="483" />
<glyph unicode="&#x2006;" horiz-adv-x="322" />
<glyph unicode="&#x2007;" horiz-adv-x="322" />
<glyph unicode="&#x2008;" horiz-adv-x="241" />
<glyph unicode="&#x2009;" horiz-adv-x="386" />
<glyph unicode="&#x200a;" horiz-adv-x="107" />
<glyph unicode="&#x2010;" horiz-adv-x="708" d="M80 555v90h547v-90h-547z" />
<glyph unicode="&#x2011;" horiz-adv-x="708" d="M80 555v90h547v-90h-547z" />
<glyph unicode="&#x2012;" horiz-adv-x="708" d="M80 555v90h547v-90h-547z" />
<glyph unicode="&#x2013;" horiz-adv-x="1167" d="M71 555v90h1024v-90h-1024z" />
<glyph unicode="&#x2014;" horiz-adv-x="2190" d="M71 555v90h2048v-90h-2048z" />
<glyph unicode="&#x2018;" horiz-adv-x="262" d="M13 985l153 449h76l-123 -449h-106z" />
<glyph unicode="&#x2019;" horiz-adv-x="261" d="M20 985l125 449h104l-156 -449h-73z" />
<glyph unicode="&#x201a;" horiz-adv-x="261" d="M20 -225l125 444h104l-155 -444h-74z" />
<glyph unicode="&#x201c;" horiz-adv-x="556" d="M37 985l153 449h76l-123 -449h-106zM284 985l156 449h74l-125 -449h-105z" />
<glyph unicode="&#x201d;" horiz-adv-x="557" d="M43 985l125 449h104l-156 -449h-73zM290 985l123 449h107l-154 -449h-76z" />
<glyph unicode="&#x201e;" horiz-adv-x="556" d="M43 -229l125 448h104l-155 -448h-74zM291 -229l123 448h106l-154 -448h-75z" />
<glyph unicode="&#x2022;" horiz-adv-x="581" d="M49 713q0 49 19.5 92.5t53 76.5t77.5 52.5t94 19.5q49 0 92.5 -19t76 -52t51.5 -77t19 -93t-19 -92t-51.5 -75t-76 -50.5t-92.5 -18.5q-50 0 -94.5 18.5t-77.5 51t-52.5 75.5t-19.5 91z" />
<glyph unicode="&#x2026;" horiz-adv-x="1216" d="M68 66q0 34 23 56.5t57 22.5t58 -22.5t24 -56.5q0 -35 -24 -58.5t-58 -23.5t-57 23.5t-23 58.5zM525 66q0 34 23 56.5t57 22.5t58 -22.5t24 -56.5q0 -35 -24 -58.5t-58 -23.5t-57 23.5t-23 58.5zM986 66q0 34 23 56.5t57 22.5t58 -22.5t24 -56.5q0 -35 -24 -58.5 t-58 -23.5t-57 23.5t-23 58.5z" />
<glyph unicode="&#x202f;" horiz-adv-x="386" />
<glyph unicode="&#x2039;" horiz-adv-x="447" d="M10 537l278 344h113l-283 -344l281 -336h-111z" />
<glyph unicode="&#x203a;" horiz-adv-x="447" d="M46 201l285 344l-283 336h113l276 -336l-276 -344h-115z" />
<glyph unicode="&#x205f;" horiz-adv-x="483" />
<glyph unicode="&#x20ac;" horiz-adv-x="947" d="M25 500v84h137q-2 24 -3 49.5t-1 52.5q0 70 6 135h-139v84h149q22 132 67.5 234.5t110.5 173.5t147 108t177 37q125 0 234 -53v-102q-119 71 -242 71q-72 0 -136.5 -30t-116.5 -89.5t-89.5 -147t-56.5 -202.5h542v-84h-553q-2 -17 -3 -47.5t-1 -75.5q0 -29 1 -57.5 t3 -56.5h553v-84h-542q16 -110 50.5 -192.5t83.5 -137.5t111 -83t133 -28q126 0 263 93v-99q-131 -78 -275 -78q-89 0 -166 34.5t-137 101t-101.5 164.5t-60.5 225h-145z" />
<glyph unicode="&#x2122;" horiz-adv-x="1424" d="M47 1356v78h526v-78h-223v-584h-82v584h-221zM669 772v662h115l223 -545h4l234 545h108v-662h-82v533l-231 -533h-68l-221 533v-533h-82z" />
<glyph unicode="&#x25fc;" horiz-adv-x="1025" d="M0 0v1025h1025v-1025h-1025z" />
<glyph unicode="&#xfb03;" horiz-adv-x="1448" d="M41 940v84h184v178q0 82 22 144t60.5 103t90.5 62t112 21q65 0 145 -39l-37 -74q-38 29 -112 29q-189 0 -189 -254v-170h473v178q0 82 22 144t60.5 103t90.5 62t112 21q65 0 145 -39l-37 -74q-38 29 -112 29q-189 0 -189 -254v-170h510v-1024h-92v940h-418v-940h-92v940 h-473v-940h-92v940h-184z" />
<glyph unicode="&#xfb04;" horiz-adv-x="1708" d="M45 940v84h184v178q0 82 22 144t60.5 103t90.5 62t112 21q65 0 145 -39l-37 -74q-38 29 -112 29q-189 0 -189 -254v-170h474v178q0 82 22 144t60.5 103t90.5 62t112 21q285 0 317 -204v-1064q0 -106 33.5 -153.5t113.5 -47.5q59 0 123 37v-86q-69 -34 -135 -34 q-227 0 -227 272v1076q-29 120 -229 120q-189 0 -189 -254v-170h271v-84h-271v-940h-92v940h-474v-940h-92v940h-184z" />
</font>
</defs>
</svg>
